<svg width="20" height="21" viewBox="0 0 20 21" fill="none" xmlns="http://www.w3.org/2000/svg">
<g id="ins.svg" clip-path="url(#clip0_1_1354)">
<g id="Group 169408">
<g id="Group 169449">
<path id="Path 23081" d="M19.6563 4.44479V4.33486C19.6673 3.81939 19.5741 3.307 19.3823 2.82841C19.1905 2.34982 18.9041 1.91488 18.5401 1.54965C18.1762 1.18442 17.7423 0.896421 17.2644 0.70291C16.7865 0.509399 16.2745 0.414359 15.7589 0.423488C11.9069 0.414827 8.05214 0.414827 4.19473 0.423488C3.67929 0.416162 3.16773 0.513553 2.69104 0.709756C2.21435 0.90596 1.78246 1.19689 1.42152 1.56493C1.06059 1.93297 0.77812 2.37045 0.59124 2.85087C0.40436 3.33129 0.316952 3.84465 0.334317 4.35984C0.334317 8.24523 0.385285 12.1226 0.31733 16.008C0.300773 16.5438 0.392529 17.0774 0.587108 17.5769C0.781686 18.0764 1.07508 18.5315 1.44972 18.9149C1.82435 19.2983 2.27252 19.6022 2.76737 19.8082C3.26223 20.0143 3.7936 20.1184 4.32963 20.1143C8.12708 20.0973 11.9315 20.1222 15.733 20.1063C16.2577 20.114 16.7785 20.0147 17.2637 19.8146C17.7488 19.6145 18.1881 19.3177 18.5548 18.9423C18.9215 18.5669 19.208 18.1208 19.3967 17.6311C19.5853 17.1414 19.6723 16.6184 19.6523 16.094C19.6603 14.1473 19.6523 12.1916 19.6523 10.2439L19.6563 4.44479ZM13.2057 17.7359C12.1304 17.7608 11.0551 17.7439 9.97984 17.7439C8.90456 17.7439 7.82927 17.7688 6.754 17.7359C5.67133 17.6763 4.64999 17.2143 3.89032 16.4406C3.13066 15.6669 2.6875 14.6372 2.64776 13.5537C2.60579 11.3441 2.60579 9.14263 2.64776 6.93311C2.69643 5.84911 3.14609 4.82185 3.90947 4.0507C4.67286 3.27956 5.69554 2.81954 6.77899 2.75992C8.92954 2.71795 11.0881 2.71795 13.2386 2.75992C14.333 2.80918 15.368 3.27172 16.1348 4.05421C16.9015 4.8367 17.3429 5.8809 17.3699 6.97609C17.4038 9.14363 17.4118 11.3192 17.3699 13.4857C17.3424 14.5896 16.8974 15.642 16.1247 16.4307C15.3519 17.2195 14.3088 17.6859 13.2057 17.7359Z" fill="#707272"/>
<path id="Path 23082" d="M13.1131 3.7583C11.0559 3.71566 8.99325 3.71566 6.92531 3.7583C6.03918 3.77634 5.1954 4.14093 4.57497 4.77388C3.95454 5.40682 3.60688 6.25771 3.60654 7.14402C3.57256 9.21763 3.57256 11.3002 3.60654 13.3748C3.60914 13.8226 3.70023 14.2655 3.87459 14.678C4.04895 15.0905 4.30314 15.4644 4.62252 15.7783C4.9419 16.0922 5.32018 16.3399 5.73561 16.5071C6.15105 16.6743 6.59544 16.7577 7.04322 16.7526H9.94728C10.9546 16.7526 11.9539 16.7606 12.9612 16.7526C13.4179 16.7523 13.8698 16.6608 14.2906 16.4837C14.7115 16.3065 15.0927 16.0471 15.412 15.7207C15.7313 15.3943 15.9823 15.0075 16.1502 14.5829C16.3181 14.1583 16.3996 13.7044 16.3899 13.2479V7.23796C16.4041 6.79412 16.3304 6.35187 16.1732 5.93655C16.0161 5.52124 15.7785 5.14104 15.474 4.81777C15.1696 4.49449 14.8043 4.23449 14.3992 4.05268C13.9941 3.87087 13.557 3.77083 13.1131 3.7583ZM9.98924 14.0274C9.23659 14.0395 8.49742 13.8269 7.86619 13.4168C7.23495 13.0067 6.74029 12.4178 6.44545 11.7252C6.1506 11.0326 6.06895 10.2678 6.21091 9.52852C6.35287 8.78928 6.71201 8.10915 7.24243 7.57503C7.77285 7.0409 8.45047 6.67705 9.18871 6.52995C9.92695 6.38285 10.6923 6.45919 11.3869 6.74922C12.0816 7.03924 12.6739 7.52978 13.0884 8.15815C13.5029 8.78652 13.7206 9.52419 13.7137 10.2769C13.7173 10.7682 13.6236 11.2554 13.438 11.7104C13.2524 12.1653 12.9786 12.579 12.6324 12.9276C12.2862 13.2763 11.8744 13.5529 11.4207 13.7417C10.9671 13.9304 10.4806 14.0275 9.98924 14.0274ZM14.1794 7.11904C13.925 7.10791 13.6849 6.99843 13.5096 6.81367C13.3344 6.62892 13.2377 6.38334 13.2401 6.12871C13.2366 5.99771 13.2602 5.86741 13.3095 5.74601C13.3589 5.62461 13.4328 5.51473 13.5267 5.4233C13.6205 5.33187 13.7323 5.26086 13.855 5.21475C13.9776 5.16864 14.1085 5.14841 14.2394 5.15536C14.494 5.16628 14.7348 5.27407 14.9126 5.45667C15.0904 5.63927 15.1916 5.88289 15.1957 6.1377C15.1892 6.40198 15.0789 6.65306 14.8887 6.83669C14.6986 7.02032 14.4438 7.12174 14.1794 7.11904Z" fill="#707272"/>
<path id="Path 23083" d="M10.0225 7.44867C9.46735 7.43108 8.91951 7.5791 8.44877 7.87389C7.97803 8.16868 7.60568 8.5969 7.37912 9.10402C7.15255 9.61114 7.08204 10.1742 7.17655 10.7215C7.27107 11.2689 7.52634 11.7757 7.90986 12.1775C8.29337 12.5792 8.78779 12.8578 9.33014 12.9776C9.87248 13.0974 10.4382 13.0532 10.9553 12.8504C11.4724 12.6476 11.9175 12.2956 12.2338 11.839C12.5501 11.3825 12.7235 10.8421 12.7317 10.2868C12.7411 9.92228 12.6784 9.55952 12.5472 9.21935C12.416 8.87917 12.2188 8.56828 11.9671 8.30454C11.7153 8.04081 11.4139 7.82942 11.0802 7.68254C10.7465 7.53566 10.387 7.45619 10.0225 7.44867Z" fill="#707272"/>
</g>
</g>
</g>
<defs>
<clipPath id="clip0_1_1354">
<rect width="19.34" height="19.6968" fill="white" transform="translate(0.320312 0.416504)"/>
</clipPath>
</defs>
</svg>
