<svg width="20" height="21" viewBox="0 0 20 21" fill="none" xmlns="http://www.w3.org/2000/svg">
<g id="lin.svg" clip-path="url(#clip0_1_1362)">
<path id="Rectangle 141311" d="M4.4857 7.13428H0.344727V20.6599H4.4857V7.13428Z" fill="#707272"/>
<path id="Path 23078" d="M2.41885 5.28765C1.93476 5.29558 1.45925 5.15929 1.05287 4.89612C0.646486 4.63294 0.327599 4.25479 0.13682 3.80981C-0.0539593 3.36482 -0.108005 2.87313 -0.0184456 2.39733C0.0711142 1.92153 0.300238 1.48314 0.639748 1.13797C0.979257 0.792807 1.41379 0.556477 1.88805 0.459065C2.36231 0.361654 2.85483 0.407569 3.30291 0.590968C3.75098 0.774367 4.13434 1.08695 4.4042 1.48893C4.67405 1.89091 4.81819 2.36409 4.81825 2.84825C4.82155 3.16615 4.76203 3.48158 4.64311 3.77642C4.52419 4.07126 4.34821 4.33971 4.12528 4.56636C3.90234 4.79302 3.63682 4.97341 3.34399 5.09719C3.05115 5.22096 2.73676 5.28569 2.41885 5.28765Z" fill="#707272"/>
<path id="Path 23079" d="M19.9672 20.6589H15.8342V14.0786C15.8342 12.5119 15.8092 10.4964 13.6827 10.4964C11.5313 10.4964 11.2013 12.207 11.2013 13.9686V20.6589H7.06836V7.13427H11.0324V8.98081H11.0914C11.4815 8.29316 12.0528 7.72575 12.7431 7.34039C13.4335 6.95503 14.2163 6.76651 15.0064 6.79536C19.1904 6.79536 19.9692 9.59467 19.9692 13.2408L19.9672 20.6589Z" fill="#707272"/>
</g>
<defs>
<clipPath id="clip0_1_1362">
<rect width="19.9451" height="20.25" fill="white" transform="translate(0.0224609 0.409912)"/>
</clipPath>
</defs>
</svg>
