<svg width="28" height="21" viewBox="0 0 28 21" fill="none" xmlns="http://www.w3.org/2000/svg">
<g id="tou.svg" clip-path="url(#clip0_1_1350)">
<path id="Path 23080" d="M27.2637 3.48431C27.1095 2.89123 26.8023 2.34903 26.3728 1.91197C25.9432 1.4749 25.4065 1.1583 24.8162 0.99382C22.6566 0.408938 14.0004 0.408936 14.0004 0.408936C14.0004 0.408936 5.34412 0.408938 3.18456 0.99382C2.59425 1.1583 2.05749 1.4749 1.62797 1.91197C1.19845 2.34903 0.891231 2.89123 0.737057 3.48431C-0.0308419 7.96876 -0.0308419 12.5511 0.737057 17.0356C0.890882 17.6282 1.1975 18.17 1.62628 18.6071C2.05506 19.0441 2.59099 19.361 3.18056 19.5261C5.34012 20.1109 13.9964 20.1109 13.9964 20.1109C13.9964 20.1109 22.6526 20.1109 24.8122 19.5261C25.4025 19.3616 25.9392 19.045 26.3688 18.6079C26.7983 18.1708 27.1055 17.6286 27.2597 17.0356C28.0276 12.5511 28.0276 7.96876 27.2597 3.48431H27.2637ZM11.2309 14.4821V6.03379L18.4215 10.2599L11.2309 14.4821Z" fill="#707272"/>
</g>
<defs>
<clipPath id="clip0_1_1350">
<rect width="27.6784" height="19.7" fill="white" transform="translate(0.161133 0.409912)"/>
</clipPath>
</defs>
</svg>
