<svg width="26" height="21" viewBox="0 0 26 21" fill="none" xmlns="http://www.w3.org/2000/svg">
<g id="twi.svg" clip-path="url(#clip0_1_1346)">
<path id="Path 23077" d="M8.5092 20.6263C17.6617 20.6263 22.6662 12.9211 22.6662 6.23345C22.6662 6.01356 22.6582 5.79266 22.6492 5.58177C23.6239 4.8626 24.4638 3.97672 25.13 2.96506C24.226 3.37786 23.2633 3.64761 22.2764 3.76467C23.3178 3.12513 24.0935 2.13146 24.4613 0.966052C23.4859 1.55163 22.4178 1.9667 21.3029 2.19345C20.841 1.69008 20.2798 1.28804 19.6546 1.01276C19.0293 0.73749 18.3538 0.594977 17.6707 0.594238C16.3404 0.605066 15.0689 1.14349 14.1354 2.09123C13.2019 3.03896 12.6828 4.3185 12.6921 5.64874C12.6895 6.0359 12.7304 6.42215 12.8141 6.80017C10.8284 6.69502 8.88768 6.16971 7.12008 5.25895C5.35249 4.34819 3.79828 3.07271 2.56014 1.51678C1.92046 2.62916 1.72384 3.94187 2.00954 5.19285C2.29523 6.44383 3.04222 7.54104 4.10138 8.26544C3.31025 8.24055 2.53719 8.02266 1.8495 7.63076V7.69972C1.84416 8.85873 2.23755 9.98432 2.96367 10.8877C3.68979 11.7911 4.70447 12.4173 5.83752 12.6613C5.10659 12.8653 4.33789 12.8944 3.59363 12.7462C3.90358 13.7446 4.51881 14.6207 5.35273 15.2511C6.18665 15.8815 7.19726 16.2345 8.24233 16.2605C6.48764 17.6634 4.30799 18.4279 2.06139 18.4284C1.66532 18.4271 1.2696 18.4044 0.875977 18.3604C3.14475 19.8416 5.79575 20.63 8.5052 20.6293" fill="#707272"/>
</g>
<defs>
<clipPath id="clip0_1_1346">
<rect width="24.25" height="20.0331" fill="white" transform="translate(0.879883 0.593262)"/>
</clipPath>
</defs>
</svg>
